# xmcd
#
# Track frame offsets:
#        150
#        18943
#        35830
#        58005
#        76765
#        94025
#        110638
#        127450
#        147955
#        167790
#        182803
#        203485
#
# Disc length: 3004 seconds
#
# Revision: 2
# Processed by: cddbd v1.5.1PL0 Copyright (c) Steve Scherf et al.
# Submitted via: ExactAudioCopy v0.95a3
#
DISCID=a70bba0c
DTITLE=DONATO and ESTEFANO - Mar Adentro
DYEAR=1900
DGENRE=
TTITLE0=Sin Ti
TTITLE1=Te Estoy Amando
TTITLE2=Naturaleza
TTITLE3=Y Bailo
TTITLE4=Mar Adentro
TTITLE5=Que Locura
TTITLE6=Porque Vale la Pena
TTITLE7=Agua de Cascada
TTITLE8=Canciones de Amor
TTITLE9=Quererse Tanto
TTITLE10=Toma tu Tiempo y Sue驕
TTITLE11=Estoy Enamorado
EXTD=
EXTT0=Without You
EXTT1=I'm Loving you
EXTT2=Nature
EXTT3=And I Dance
EXTT4=Sea Inside
EXTT5=What Craziness
EXTT6=Because it's Worth it
EXTT7=Waterfall
EXTT8=Love Songs
EXTT9=Love Yourself So Much
EXTT10=Take your Time and Dream
EXTT11=I'm in Love
PLAYORDER=
